<?xml version="1.0" standalone="no"?>
<!DOCTYPE svg PUBLIC "-//W3C//DTD SVG 20010904//EN"
 "http://www.w3.org/TR/2001/REC-SVG-20010904/DTD/svg10.dtd">
<svg version="1.0" xmlns="http://www.w3.org/2000/svg"
 width="231.000000pt" height="231.000000pt" viewBox="0 0 231.000000 231.000000"
 preserveAspectRatio="xMidYMid meet">
<metadata>
Created by potrace 1.11, written by Peter Selinger 2001-2013
</metadata>
<g transform="translate(0.000000,231.000000) scale(0.100000,-0.100000)"
fill="#000000" stroke="none">
<path d="M987 2300 c-267 -42 -483 -154 -667 -346 -218 -227 -320 -481 -320
-799 0 -331 116 -604 353 -832 100 -96 177 -150 300 -208 371 -178 809 -145
1149 86 139 95 286 259 366 409 91 169 132 340 132 545 0 319 -102 573 -323
802 -164 170 -359 279 -590 329 -85 19 -318 27 -400 14z m310 -976 c23 -13 44
-28 48 -33 3 -5 -9 -21 -26 -35 l-31 -26 -33 20 c-94 58 -198 -24 -166 -131
22 -73 100 -101 167 -60 l32 19 33 -27 32 -27 -34 -26 c-55 -42 -109 -53 -175
-39 -105 24 -162 107 -151 217 16 152 169 226 304 148z m-505 -21 c9 -27 40
-114 71 -195 l55 -148 -48 0 c-45 0 -48 2 -56 33 l-10 32 -74 0 -74 0 -8 -32
c-8 -31 -11 -33 -53 -33 -25 0 -45 4 -45 8 0 9 129 362 137 374 2 5 23 8 47 8
42 0 42 -1 58 -47z m853 30 c17 -44 135 -364 135 -369 0 -2 -20 -4 -44 -4 -42
0 -45 2 -56 35 l-12 35 -72 0 -73 0 -9 -32 c-9 -31 -13 -33 -57 -36 l-47 -3
36 98 c20 54 52 142 71 196 l35 97 43 0 c31 0 45 -5 50 -17z"/>
<path d="M707 1177 c-24 -74 -23 -77 23 -77 24 0 40 5 40 12 0 19 -33 118 -40
118 -3 0 -14 -24 -23 -53z"/>
<path d="M1576 1183 c-10 -32 -21 -64 -23 -70 -4 -9 8 -13 41 -13 25 0 46 4
46 8 0 10 -41 132 -44 132 -1 0 -10 -26 -20 -57z"/>
</g>
</svg>
